<svg width="100" height="100" viewBox="0 0 100 100" fill="none" xmlns="http://www.w3.org/2000/svg">
<path d="M0 82V29.6364H10.9677V25.1111H24.5161V29.6364H41.5516L44.5161 18H65.1613L68.3871 29.6364H100V82H0Z" fill="black"/>
<path d="M17.6779 72.0573C19.9146 72.6176 22.8968 72.8978 26.6247 72.8978C32.2475 72.8978 36.2549 72.0729 38.647 70.4231C41.0701 68.7733 42.0331 66.7188 42.0331 63.3259V47.7618V39.9798H24.4812V62.859C24.4812 65.0691 23.9841 66.6877 22.99 67.7149C22.027 68.711 20.7378 69.2091 19.1224 69.2091C15.5188 69.2091 13.717 67.0924 13.717 62.859V60.2909H10.9677V62.859C10.9677 65.5049 11.5269 67.5593 12.6453 69.0223C13.7636 70.4542 15.4412 71.4659 17.6779 72.0573Z" fill="white"/>
<path d="M55.6397 39.9798H42.0331V48.1509L54.2884 72.6643H58.3424L67.8484 48.1509V72.6643H82.7598V39.9798H67.8484L62.443 53.6139L55.6397 39.9798Z" fill="white"/>
</svg>
