<svg width="152" height="152" viewBox="0 0 152 152" fill="none" xmlns="http://www.w3.org/2000/svg">
<circle cx="76" cy="76" r="76" fill="white"/>
<path d="M26 108V55.6364H36.9677V51.1111H50.5161V55.6364H67.5516L70.5161 44H91.1613L94.3871 55.6364H126V108H26Z" fill="black"/>
<path d="M43.6779 98.0573C45.9146 98.6176 48.8968 98.8978 52.6247 98.8978C58.2475 98.8978 62.2549 98.0729 64.647 96.4231C67.0701 94.7733 68.0331 92.7188 68.0331 89.3259V73.7618V65.9798H50.4812V88.859C50.4812 91.0691 49.9841 92.6877 48.99 93.7149C48.027 94.711 46.7378 95.2091 45.1224 95.2091C41.5188 95.2091 39.717 93.0924 39.717 88.859V86.2909H36.9677V88.859C36.9677 91.5049 37.5269 93.5593 38.6453 95.0223C39.7636 96.4542 41.4412 97.4659 43.6779 98.0573Z" fill="white"/>
<path d="M81.6397 65.9798H68.0331V74.1509L80.2884 98.6643H84.3424L93.8484 74.1509V98.6643H108.76V65.9798H93.8484L88.443 79.6139L81.6397 65.9798Z" fill="white"/>
</svg>
